<?xml version="1.0" encoding="utf-8"?>
<!-- Generator: Adobe Illustrator 19.0.0, SVG Export Plug-In . SVG Version: 6.00 Build 0)  -->
<svg version="1.1" id="Capa_1" xmlns="http://www.w3.org/2000/svg" xmlns:xlink="http://www.w3.org/1999/xlink" x="0px" y="0px"
	 viewBox="-184 321.9 226.8 199" style="enable-background:new -184 321.9 226.8 199;" xml:space="preserve">
<style type="text/css">
	.st0{fill:none;stroke:#0B3954;stroke-width:7;stroke-miterlimit:10;}
	.st1{fill:#0B3954;}
</style>
<g id="XMLID_21_">
	<rect id="XMLID_30_" x="-126.6" y="324.2" class="st0" width="106.8" height="106.8"/>
	<polyline id="XMLID_29_" class="st0" points="-125.5,342.5 -108.1,342.5 -108.1,431 -125.5,431 	"/>
	<path id="XMLID_28_" class="st0" d="M-19.8,324.2"/>
	<polyline id="XMLID_27_" class="st0" points="-19.8,414 -90.2,414 -90.2,324.2 	"/>
	<polyline id="XMLID_26_" class="st0" points="-19.8,396.1 -73.2,396.1 -73.2,325.1 	"/>
	<path id="XMLID_25_" class="st0" d="M-19.8,325.1"/>
	<path id="XMLID_24_" class="st0" d="M-19.8,324.2"/>
	<polyline id="XMLID_23_" class="st0" points="-19.8,377.6 -55,377.6 -55,324.2 	"/>
	<polyline id="XMLID_22_" class="st0" points="-20.9,362.6 -37.4,362.6 -37.4,342.5 -20.9,342.5 	"/>
</g>
<g id="XMLID_31_">
	<path id="XMLID_313_" class="st1" d="M-145.5,518.4h-37.1v-53.9h35.7v9.9h-21.8v12h20.2v9.8h-20.2v12.3h23.2V518.4z"/>
	<path id="XMLID_315_" class="st1" d="M-135.6,518.4v-53.9h21.9c22,0,33,8.8,33,26.3c0,8.4-3,15.1-9,20.1s-14,7.5-24,7.5H-135.6z
		 M-121.6,474.4v34.2h6.9c6,0,10.8-1.6,14.2-4.7c3.4-3.2,5.2-7.5,5.2-12.9c0-5.1-1.7-9.2-5.1-12.1s-8.2-4.4-14.4-4.4h-6.8
		C-121.6,474.5-121.6,474.4-121.6,474.4z"/>
	<path id="XMLID_318_" class="st1" d="M-70.4,518.4v-53.9h21.9c22,0,33,8.8,33,26.3c0,8.4-3,15.1-9,20.1s-14,7.5-24,7.5H-70.4z
		 M-56.5,474.4v34.2h6.9c6,0,10.8-1.6,14.2-4.7c3.4-3.2,5.2-7.5,5.2-12.9c0-5.1-1.7-9.2-5.1-12.1c-3.4-2.9-8.2-4.4-14.4-4.4h-6.8
		C-56.5,474.5-56.5,474.4-56.5,474.4z"/>
	<path id="XMLID_321_" class="st1" d="M41.4,464.5l-20.1,34.8v19.2h-14v-18.9l-19.6-35H3.6l10,20.1c0.2,0.4,0.6,1.8,1.4,4.4h0.2
		c0.4-1.8,0.8-3.2,1.3-4.2l10.1-20.3h14.8V464.5z"/>
</g>
<g id="XMLID_312_">
</g>
<g id="XMLID_323_">
</g>
<g id="XMLID_324_">
</g>
<g id="XMLID_325_">
</g>
<g id="XMLID_326_">
</g>
<g id="XMLID_327_">
</g>
</svg>
