<?xml version="1.0" encoding="utf-8"?>
<!-- Generator: Adobe Illustrator 19.0.0, SVG Export Plug-In . SVG Version: 6.00 Build 0)  -->
<svg version="1.2" baseProfile="tiny" id="Capa_1" xmlns="http://www.w3.org/2000/svg" xmlns:xlink="http://www.w3.org/1999/xlink"
	 x="0px" y="0px" viewBox="0 0 340.2 61.5" xml:space="preserve">
<g id="XMLID_3_">
	<path id="XMLID_250_" fill="#4882A4" d="M145.4,58h-37.1V4.1H144V14h-21.8v12h20.2v9.8h-20.2v12.3h23.2V58z"/>
	<path id="XMLID_252_" fill="#4882A4" d="M155.3,58V4.1h21.9c22,0,33,8.8,33,26.3c0,8.4-3,15.1-9,20.1c-6,5-14,7.5-24,7.5H155.3z
		 M169.3,14v34.2h6.9c6,0,10.8-1.6,14.2-4.7c3.4-3.2,5.2-7.5,5.2-12.9c0-5.1-1.7-9.2-5.1-12.1s-8.2-4.4-14.4-4.4H169.3z"/>
	<path id="XMLID_255_" fill="#4882A4" d="M220.5,58V4.1h21.9c22,0,33,8.8,33,26.3c0,8.4-3,15.1-9,20.1c-6,5-14,7.5-24,7.5H220.5z
		 M234.5,14v34.2h6.9c6,0,10.8-1.6,14.2-4.7c3.4-3.2,5.2-7.5,5.2-12.9c0-5.1-1.7-9.2-5.1-12.1s-8.2-4.4-14.4-4.4H234.5z"/>
	<path id="XMLID_258_" fill="#4882A4" d="M332.4,4.1l-20.2,34.7V58h-13.9V39l-19.6-35h15.9l10,20.1c0.2,0.4,0.6,1.8,1.4,4.4h0.2
		c0.4-1.8,0.8-3.2,1.3-4.2l10.1-20.3H332.4z"/>
</g>
<g id="XMLID_11_">
	
		<rect id="XMLID_10_" x="12.9" y="2" fill="none" stroke="#4882A4" stroke-width="5" stroke-miterlimit="10" width="57.5" height="57.5"/>
	<polyline id="XMLID_15_" fill="none" stroke="#4882A4" stroke-width="5" stroke-miterlimit="10" points="13.5,11.9 22.9,11.9 
		22.9,59.5 13.5,59.5 	"/>
	<path id="XMLID_19_" fill="none" stroke="#4882A4" stroke-width="5" stroke-miterlimit="10" d="M70.4,2"/>
	<polyline id="XMLID_13_" fill="none" stroke="#4882A4" stroke-width="5" stroke-miterlimit="10" points="70.4,50.3 32.5,50.3 
		32.5,2 	"/>
	<polyline id="XMLID_17_" fill="none" stroke="#4882A4" stroke-width="5" stroke-miterlimit="10" points="70.4,40.7 41.7,40.7 
		41.7,2.5 	"/>
	<path id="XMLID_14_" fill="none" stroke="#4882A4" stroke-width="5" stroke-miterlimit="10" d="M70.4,2.5"/>
	<path id="XMLID_18_" fill="none" stroke="#4882A4" stroke-width="5" stroke-miterlimit="10" d="M70.4,2"/>
	<polyline id="XMLID_12_" fill="none" stroke="#4882A4" stroke-width="5" stroke-miterlimit="10" points="70.4,30.8 51.5,30.8 
		51.5,2 	"/>
	<polyline id="XMLID_16_" fill="none" stroke="#4882A4" stroke-width="5" stroke-miterlimit="10" points="69.9,22.7 61,22.7 
		61,11.9 69.9,11.9 	"/>
</g>
<path id="XMLID_249_" fill="none" stroke="#4882A4" stroke-miterlimit="10" d="M89.9,61.5"/>
<path id="XMLID_248_" fill="none" stroke="#4882A4" stroke-miterlimit="10" d="M90.2,0.5"/>
<line id="XMLID_245_" fill="none" stroke="#4882A4" stroke-width="5" stroke-miterlimit="10" x1="89.9" y1="0" x2="89.9" y2="61.5"/>
<g id="XMLID_20_">
</g>
<g id="XMLID_260_">
</g>
<g id="XMLID_261_">
</g>
<g id="XMLID_262_">
</g>
<g id="XMLID_263_">
</g>
<g id="XMLID_264_">
</g>
</svg>
