<?xml version="1.0" encoding="utf-8"?>
<!-- Generator: Adobe Illustrator 19.0.0, SVG Export Plug-In . SVG Version: 6.00 Build 0)  -->
<svg version="1.1" id="Capa_1" xmlns="http://www.w3.org/2000/svg" xmlns:xlink="http://www.w3.org/1999/xlink" x="0px" y="0px"
	 viewBox="-184 321.9 226.8 199" style="enable-background:new -184 321.9 226.8 199;" xml:space="preserve">
<style type="text/css">
	.st0{fill:none;stroke:#FFFFFF;stroke-width:7;stroke-miterlimit:10;}
	.st1{fill:#FFFFFF;}
</style>
<g id="XMLID_21_">
	<rect id="XMLID_30_" x="-126.9" y="325.4" class="st0" width="106.8" height="106.8"/>
	<polyline id="XMLID_29_" class="st0" points="-125.8,343.7 -108.4,343.7 -108.4,432.2 -125.8,432.2 	"/>
	<path id="XMLID_28_" class="st0" d="M-20.1,325.4"/>
	<polyline id="XMLID_27_" class="st0" points="-20.1,415.2 -90.5,415.2 -90.5,325.4 	"/>
	<polyline id="XMLID_26_" class="st0" points="-20.1,397.3 -73.5,397.3 -73.5,326.3 	"/>
	<path id="XMLID_25_" class="st0" d="M-20.1,326.3"/>
	<path id="XMLID_24_" class="st0" d="M-20.1,325.4"/>
	<polyline id="XMLID_23_" class="st0" points="-20.1,378.8 -55.3,378.8 -55.3,325.4 	"/>
	<polyline id="XMLID_22_" class="st0" points="-21.2,363.8 -37.7,363.8 -37.7,343.7 -21.2,343.7 	"/>
</g>
<g id="XMLID_31_">
	<path id="XMLID_313_" class="st1" d="M-145.8,519.6h-37.1v-53.9h35.7v9.9H-169v12h20.2v9.8H-169v12.3h23.2V519.6z"/>
	<path id="XMLID_315_" class="st1" d="M-135.9,519.6v-53.9h21.9c22,0,33,8.8,33,26.3c0,8.4-3,15.1-9,20.1c-6,5-14,7.5-24,7.5H-135.9
		z M-121.9,475.6v34.2h6.9c6,0,10.8-1.6,14.2-4.7c3.4-3.2,5.2-7.5,5.2-12.9c0-5.1-1.7-9.2-5.1-12.1c-3.4-2.9-8.2-4.4-14.4-4.4h-6.8
		V475.6z"/>
	<path id="XMLID_318_" class="st1" d="M-70.7,519.6v-53.9h21.9c22,0,33,8.8,33,26.3c0,8.4-3,15.1-9,20.1c-6,5-14,7.5-24,7.5H-70.7z
		 M-56.8,475.6v34.2h6.9c6,0,10.8-1.6,14.2-4.7c3.4-3.2,5.2-7.5,5.2-12.9c0-5.1-1.7-9.2-5.1-12.1c-3.4-2.9-8.2-4.4-14.4-4.4h-6.8
		V475.6z"/>
	<path id="XMLID_321_" class="st1" d="M41.1,465.7L21,500.5v19.2H7v-18.9l-19.6-35H3.3l10,20.1c0.2,0.4,0.6,1.8,1.4,4.4h0.2
		c0.4-1.8,0.8-3.2,1.3-4.2l10.1-20.3h14.8V465.7z"/>
</g>
<g id="XMLID_312_">
</g>
<g id="XMLID_323_">
</g>
<g id="XMLID_324_">
</g>
<g id="XMLID_325_">
</g>
<g id="XMLID_326_">
</g>
<g id="XMLID_327_">
</g>
</svg>
