<?xml version="1.0" encoding="utf-8"?>
<!-- Generator: Adobe Illustrator 19.0.0, SVG Export Plug-In . SVG Version: 6.00 Build 0)  -->
<svg version="1.2" baseProfile="tiny" id="Capa_1" xmlns="http://www.w3.org/2000/svg" xmlns:xlink="http://www.w3.org/1999/xlink"
	 x="0px" y="0px" viewBox="0 0 231.1 199" xml:space="preserve">
<g id="XMLID_21_">
	
		<rect id="XMLID_30_" x="60.1" y="3.5" fill="none" stroke="#4882A4" stroke-width="7" stroke-miterlimit="10" width="106.8" height="106.8"/>
	<polyline id="XMLID_29_" fill="none" stroke="#4882A4" stroke-width="7" stroke-miterlimit="10" points="61.2,21.8 78.6,21.8 
		78.6,110.3 61.2,110.3 	"/>
	<path id="XMLID_28_" fill="none" stroke="#4882A4" stroke-width="7" stroke-miterlimit="10" d="M166.9,3.5"/>
	<polyline id="XMLID_27_" fill="none" stroke="#4882A4" stroke-width="7" stroke-miterlimit="10" points="166.9,93.3 96.5,93.3 
		96.5,3.5 	"/>
	<polyline id="XMLID_26_" fill="none" stroke="#4882A4" stroke-width="7" stroke-miterlimit="10" points="166.9,75.4 113.5,75.4 
		113.5,4.4 	"/>
	<path id="XMLID_25_" fill="none" stroke="#4882A4" stroke-width="7" stroke-miterlimit="10" d="M166.9,4.4"/>
	<path id="XMLID_24_" fill="none" stroke="#4882A4" stroke-width="7" stroke-miterlimit="10" d="M166.9,3.5"/>
	<polyline id="XMLID_23_" fill="none" stroke="#4882A4" stroke-width="7" stroke-miterlimit="10" points="166.9,56.9 131.7,56.9 
		131.7,3.5 	"/>
	<polyline id="XMLID_22_" fill="none" stroke="#4882A4" stroke-width="7" stroke-miterlimit="10" points="165.8,41.9 149.3,41.9 
		149.3,21.8 165.8,21.8 	"/>
</g>
<g id="XMLID_31_">
	<path id="XMLID_15_" fill="#4882A4" d="M44.2,197.7H7.1v-53.9h35.7v9.9H21v12h20.2v9.8H21v12.3h23.2V197.7z"/>
	<path id="XMLID_275_" fill="#4882A4" d="M54.1,197.7v-53.9h21.9c22,0,33,8.8,33,26.3c0,8.4-3,15.1-9,20.1c-6,5-14,7.5-24,7.5H54.1z
		 M68.1,153.7v34.2H75c6,0,10.8-1.6,14.2-4.7c3.4-3.2,5.2-7.5,5.2-12.9c0-5.1-1.7-9.2-5.1-12.1s-8.2-4.4-14.4-4.4H68.1z"/>
	<path id="XMLID_278_" fill="#4882A4" d="M119.3,197.7v-53.9h21.9c22,0,33,8.8,33,26.3c0,8.4-3,15.1-9,20.1c-6,5-14,7.5-24,7.5
		H119.3z M133.2,153.7v34.2h6.9c6,0,10.8-1.6,14.2-4.7c3.4-3.2,5.2-7.5,5.2-12.9c0-5.1-1.7-9.2-5.1-12.1s-8.2-4.4-14.4-4.4H133.2z"
		/>
	<path id="XMLID_281_" fill="#4882A4" d="M231.1,143.8L211,178.6v19.2H197v-18.9l-19.6-35h15.9l10,20.1c0.2,0.4,0.6,1.8,1.4,4.4h0.2
		c0.4-1.8,0.8-3.2,1.3-4.2l10.1-20.3H231.1z"/>
</g>
<g id="XMLID_12_">
</g>
<g id="XMLID_283_">
</g>
<g id="XMLID_284_">
</g>
<g id="XMLID_285_">
</g>
<g id="XMLID_286_">
</g>
<g id="XMLID_287_">
</g>
</svg>
