<?xml version="1.0" encoding="utf-8"?>
<!-- Generator: Adobe Illustrator 19.0.0, SVG Export Plug-In . SVG Version: 6.00 Build 0)  -->
<svg version="1.1" id="Capa_1" xmlns="http://www.w3.org/2000/svg" xmlns:xlink="http://www.w3.org/1999/xlink" x="0px" y="0px"
	 viewBox="-127 390.4 340.2 61.5" style="enable-background:new -127 390.4 340.2 61.5;" xml:space="preserve">
<style type="text/css">
	.st0{fill:#1D1D1B;stroke:#0B3954;stroke-miterlimit:10;}
	.st1{fill:none;stroke:#1D1D1B;stroke-width:5;stroke-miterlimit:10;}
</style>
<g id="XMLID_3_">
	<path id="XMLID_14_" class="st0" d="M18.4,448.4h-37.1v-53.9H17v9.9H-4.8v12h20.2v9.8H-4.8v12.3h23.2
		C18.4,438.5,18.4,448.4,18.4,448.4z"/>
	<path id="XMLID_13_" class="st0" d="M28.3,448.4v-53.9h21.9c22,0,33,8.8,33,26.3c0,8.4-3,15.1-9,20.1s-14,7.5-24,7.5H28.3z
		 M42.3,404.4v34.2h6.9c6,0,10.8-1.6,14.2-4.7c3.4-3.2,5.2-7.5,5.2-12.9c0-5.1-1.7-9.2-5.1-12.1s-8.2-4.4-14.4-4.4L42.3,404.4
		L42.3,404.4z"/>
	<path id="XMLID_12_" class="st0" d="M93.5,448.4v-53.9h21.9c22,0,33,8.8,33,26.3c0,8.4-3,15.1-9,20.1s-14,7.5-24,7.5H93.5z
		 M107.5,404.4v34.2h6.9c6,0,10.8-1.6,14.2-4.7c3.4-3.2,5.2-7.5,5.2-12.9c0-5.1-1.7-9.2-5.1-12.1c-3.4-2.9-8.2-4.4-14.4-4.4
		L107.5,404.4L107.5,404.4z"/>
	<path id="XMLID_10_" class="st0" d="M205.4,394.5l-20.2,34.7v19.2h-13.9v-19l-19.6-35h15.9l10,20.1c0.2,0.4,0.6,1.8,1.4,4.4h0.2
		c0.4-1.8,0.8-3.2,1.3-4.2l10.1-20.3L205.4,394.5L205.4,394.5z"/>
</g>
<g id="XMLID_11_">
	<rect id="XMLID_24_" x="-114.1" y="392.4" class="st1" width="57.5" height="57.5"/>
	<polyline id="XMLID_23_" class="st1" points="-113.5,402.3 -104.1,402.3 -104.1,449.9 -113.5,449.9 	"/>
	<path id="XMLID_22_" class="st1" d="M-56.6,392.4"/>
	<polyline id="XMLID_21_" class="st1" points="-56.6,440.7 -94.5,440.7 -94.5,392.4 	"/>
	<polyline id="XMLID_9_" class="st1" points="-56.6,431.1 -85.3,431.1 -85.3,392.9 	"/>
	<path id="XMLID_8_" class="st1" d="M-56.6,392.9"/>
	<path id="XMLID_7_" class="st1" d="M-56.6,392.4"/>
	<polyline id="XMLID_5_" class="st1" points="-56.6,421.2 -75.5,421.2 -75.5,392.4 	"/>
	<polyline id="XMLID_1_" class="st1" points="-57.1,413.1 -66,413.1 -66,402.3 -57.1,402.3 	"/>
</g>
<path id="XMLID_249_" class="st1" d="M-37.1,451.9"/>
<path id="XMLID_248_" class="st1" d="M-36.8,390.9"/>
<line id="XMLID_245_" class="st1" x1="-37.1" y1="390.4" x2="-37.1" y2="451.9"/>
<g id="XMLID_20_">
</g>
<g id="XMLID_260_">
</g>
<g id="XMLID_261_">
</g>
<g id="XMLID_262_">
</g>
<g id="XMLID_263_">
</g>
<g id="XMLID_264_">
</g>
</svg>
